<svg xmlns="http://www.w3.org/2000/svg" width="920" height="660" viewBox="0 0 920 660">
<defs><linearGradient id="bg2" x1="0" y1="0" x2="0" y2="1"><stop offset="0%" stop-color="#f7fbff"/><stop offset="100%" stop-color="#eef3f7"/></linearGradient></defs>
<rect x="0" y="0" width="920" height="660" fill="url(#bg2)"/>
<rect x="22" y="74" width="876" height="564" rx="12" fill="#ffffff" stroke="#d6dde5"/>
<text x="28" y="38" font-size="26" font-family="Arial, sans-serif" fill="#1f2937">RTS24 PCM: Zone-Level Network</text>
<text x="28" y="62" font-size="13" font-family="Arial, sans-serif" fill="#4b5563">Corridor labels show line count and total MW between zones.</text>
<line x1="650.0" y1="170.0" x2="210.0" y2="500.0" stroke="#64748b" stroke-width="3.25" opacity="0.75"/>
<line x1="650.0" y1="500.0" x2="210.0" y2="500.0" stroke="#64748b" stroke-width="12.00" opacity="0.75"/>
<line x1="210.0" y1="170.0" x2="210.0" y2="500.0" stroke="#64748b" stroke-width="3.00" opacity="0.75"/>
<line x1="650.0" y1="170.0" x2="650.0" y2="500.0" stroke="#64748b" stroke-width="5.75" opacity="0.75"/>
<line x1="210.0" y1="170.0" x2="650.0" y2="170.0" stroke="#64748b" stroke-width="3.75" opacity="0.75"/>
<rect x="366.0" y="325.0" width="128" height="20" rx="4" fill="#ffffff" stroke="#d9e2ec"/>
<text x="430.0" y="335.2" font-size="11" text-anchor="middle" dominant-baseline="middle" font-family="Arial, sans-serif" fill="#334155">1 line, 150 MW</text>
<rect x="366.0" y="490.0" width="128" height="20" rx="4" fill="#ffffff" stroke="#d9e2ec"/>
<text x="430.0" y="500.2" font-size="11" text-anchor="middle" dominant-baseline="middle" font-family="Arial, sans-serif" fill="#334155">8 lines, 1200 MW</text>
<rect x="146.0" y="325.0" width="128" height="20" rx="4" fill="#ffffff" stroke="#d9e2ec"/>
<text x="210.0" y="335.2" font-size="11" text-anchor="middle" dominant-baseline="middle" font-family="Arial, sans-serif" fill="#334155">1 line, 120 MW</text>
<rect x="586.0" y="325.0" width="128" height="20" rx="4" fill="#ffffff" stroke="#d9e2ec"/>
<text x="650.0" y="335.2" font-size="11" text-anchor="middle" dominant-baseline="middle" font-family="Arial, sans-serif" fill="#334155">3 lines, 450 MW</text>
<rect x="366.0" y="160.0" width="128" height="20" rx="4" fill="#ffffff" stroke="#d9e2ec"/>
<text x="430.0" y="170.2" font-size="11" text-anchor="middle" dominant-baseline="middle" font-family="Arial, sans-serif" fill="#334155">4 lines, 210 MW</text>
<circle cx="210.0" cy="170.0" r="52" fill="#A5D6A7" stroke="#334155" stroke-width="1.4"/>
<text x="210.0" y="162.0" font-size="24" text-anchor="middle" dominant-baseline="middle" font-family="Arial, sans-serif" fill="#1f2937">Z1</text>
<text x="210.0" y="188.0" font-size="12" text-anchor="middle" dominant-baseline="middle" font-family="Arial, sans-serif" fill="#334155">Peak: 666 MW</text>
<circle cx="650.0" cy="170.0" r="52" fill="#90CAF9" stroke="#334155" stroke-width="1.4"/>
<text x="650.0" y="162.0" font-size="24" text-anchor="middle" dominant-baseline="middle" font-family="Arial, sans-serif" fill="#1f2937">Z2</text>
<text x="650.0" y="188.0" font-size="12" text-anchor="middle" dominant-baseline="middle" font-family="Arial, sans-serif" fill="#334155">Peak: 666 MW</text>
<circle cx="650.0" cy="500.0" r="52" fill="#FFE082" stroke="#334155" stroke-width="1.4"/>
<text x="650.0" y="492.0" font-size="24" text-anchor="middle" dominant-baseline="middle" font-family="Arial, sans-serif" fill="#1f2937">Z3</text>
<text x="650.0" y="518.0" font-size="12" text-anchor="middle" dominant-baseline="middle" font-family="Arial, sans-serif" fill="#334155">Peak: 1209 MW</text>
<circle cx="210.0" cy="500.0" r="52" fill="#CE93D8" stroke="#334155" stroke-width="1.4"/>
<text x="210.0" y="492.0" font-size="24" text-anchor="middle" dominant-baseline="middle" font-family="Arial, sans-serif" fill="#1f2937">Z4</text>
<text x="210.0" y="518.0" font-size="12" text-anchor="middle" dominant-baseline="middle" font-family="Arial, sans-serif" fill="#334155">Peak: 309 MW</text>
</svg>
